<svg xmlns="http://www.w3.org/2000/svg" width="512" height="512" viewBox="0 0 512 512">
  <defs>
    <linearGradient id="bg" x1="0%" y1="0%" x2="100%" y2="100%">
      <stop offset="0%" stop-color="#0f172a" />
      <stop offset="100%" stop-color="#2fa38a" />
    </linearGradient>
    <linearGradient id="accent" x1="0%" y1="0%" x2="0%" y2="100%">
      <stop offset="0%" stop-color="#a5f3fc" />
      <stop offset="100%" stop-color="#34d399" />
    </linearGradient>
  </defs>
  <rect width="512" height="512" rx="120" fill="url(#bg)" />
  <g fill="none" stroke-linecap="round" stroke-linejoin="round" stroke-width="28">
    <path d="M122 188h120" stroke="#ffffff" opacity="0.75" />
    <path d="M122 252h90" stroke="#ffffff" opacity="0.65" />
    <path d="M122 316h110" stroke="#ffffff" opacity="0.55" />
    <path d="M122 380h70" stroke="#34d399" opacity="0.9" />
  </g>
  <path d="M252 140c32-44 83-44 115 0 32 44 32 116 0 160-24 34-61 49-115 44" fill="none" stroke="#ecfeff" stroke-width="26" stroke-linecap="round" opacity="0.85" />
  <path d="M246 420c-60 6-84-32-64-74 11-23 32-33 64-39 60-11 91-25 116-55" fill="none" stroke="url(#accent)" stroke-width="28" stroke-linecap="round" />
</svg>
